<svg width="42" height="42" viewBox="0 0 42 42" fill="none" xmlns="http://www.w3.org/2000/svg">
<rect width="42" height="42" rx="21" fill="#B5D0FF"/>
<path d="M31.5329 17.1117C31.5482 17.3249 31.5482 17.5381 31.5482 17.7513C31.5482 24.2538 26.599 31.7462 17.5533 31.7462C14.7665 31.7462 12.1777 30.939 10 29.5382C10.396 29.5838 10.7766 29.599 11.1878 29.599C13.4873 29.599 15.604 28.8224 17.2944 27.4976C15.132 27.4518 13.3198 26.0356 12.6954 24.0863C13 24.1319 13.3045 24.1624 13.6244 24.1624C14.066 24.1624 14.5076 24.1016 14.9188 23.995C12.665 23.538 10.9746 21.5584 10.9746 19.1675V19.1066C11.6294 19.4721 12.3909 19.7005 13.1979 19.731C11.873 18.8477 11.005 17.3401 11.005 15.6345C11.005 14.7208 11.2487 13.8833 11.6751 13.1523C14.0964 16.1371 17.736 18.0863 21.8172 18.2995C21.7411 17.934 21.6954 17.5533 21.6954 17.1726C21.6954 14.4619 23.8883 12.2538 26.6141 12.2538C28.0304 12.2538 29.3096 12.8478 30.208 13.8071C31.3197 13.594 32.3856 13.1828 33.3299 12.6193C32.9644 13.7615 32.1878 14.7209 31.1674 15.33C32.1573 15.2234 33.1167 14.9493 33.9999 14.5686C33.3299 15.5432 32.4923 16.4111 31.5329 17.1117Z" fill="#3D77DA"/>
</svg>
