<svg width="42" height="42" viewBox="0 0 42 42" fill="none" xmlns="http://www.w3.org/2000/svg">
<rect width="42" height="42" rx="21" fill="#B5D0FF"/>
<path d="M30.4454 13.4829C28.183 11.6648 24.6055 11.3568 24.4543 11.3437C24.2153 11.3232 23.9885 11.4585 23.8905 11.6769C23.8868 11.6844 23.6871 12.264 23.4939 12.8231C26.1231 13.2832 27.9095 14.3043 28.0047 14.3603C28.4508 14.6197 28.6002 15.1919 28.3397 15.6371C28.1671 15.9339 27.8544 16.1 27.5333 16.1C27.3737 16.1 27.2132 16.0599 27.0658 15.974C27.0396 15.9581 24.4188 14.4667 21.0019 14.4667C17.584 14.4667 14.9623 15.9591 14.9361 15.974C14.4909 16.2325 13.9197 16.0804 13.6612 15.6343C13.4027 15.19 13.5529 14.6197 13.9972 14.3603C14.0924 14.3043 15.8853 13.2795 18.522 12.8203C18.3185 12.2547 18.1132 11.6844 18.1095 11.6769C18.0115 11.4576 17.7847 11.3195 17.5457 11.3437C17.3945 11.3559 13.8171 11.6639 11.5248 13.5072C10.3264 14.6141 7.93335 21.0859 7.93335 26.6812C7.93335 26.7801 7.95855 26.8763 8.00802 26.9621C9.66095 29.8648 14.1671 30.6245 15.1937 30.6572C15.2003 30.6581 15.2059 30.6581 15.2115 30.6581C15.3925 30.6581 15.5633 30.5713 15.6707 30.4248L16.7813 28.9203C14.3453 28.3332 13.0573 27.4101 12.9799 27.3532C12.5655 27.048 12.4759 26.4637 12.7811 26.0484C13.0853 25.6349 13.6677 25.5435 14.0821 25.8468C14.1167 25.8692 16.4939 27.5333 21 27.5333C25.5239 27.5333 27.8946 25.8627 27.9179 25.8459C28.3323 25.5453 28.9165 25.6359 29.2199 26.0521C29.5223 26.4665 29.4345 27.0471 29.022 27.3513C28.9445 27.4083 27.6631 28.3295 25.2327 28.9165L26.3293 30.4239C26.4367 30.5713 26.6075 30.6572 26.7885 30.6572C26.7951 30.6572 26.8007 30.6572 26.8063 30.6563C27.8339 30.6236 32.34 29.8639 33.992 26.9612C34.0415 26.8753 34.0667 26.7792 34.0667 26.6803C34.0667 21.0859 31.6736 14.6141 30.4454 13.4829ZM17.2667 24.7333C16.2353 24.7333 15.4 23.6889 15.4 22.4C15.4 21.1111 16.2353 20.0667 17.2667 20.0667C18.298 20.0667 19.1333 21.1111 19.1333 22.4C19.1333 23.6889 18.298 24.7333 17.2667 24.7333ZM24.7333 24.7333C23.702 24.7333 22.8667 23.6889 22.8667 22.4C22.8667 21.1111 23.702 20.0667 24.7333 20.0667C25.7647 20.0667 26.6 21.1111 26.6 22.4C26.6 23.6889 25.7647 24.7333 24.7333 24.7333Z" fill="#3D77DA"/>
</svg>
