<svg width="42" height="42" viewBox="0 0 42 42" fill="none" xmlns="http://www.w3.org/2000/svg">
<rect width="42" height="42" rx="21" fill="#B5D0FF"/>
<g clip-path="url(#clip0_1_269)">
<path d="M14.9333 13.5333C13.8915 13.5333 12.8599 13.7385 11.8974 14.1372C10.9349 14.5359 10.0603 15.1203 9.32362 15.857C8.58694 16.5936 8.00258 17.4682 7.60389 18.4307C7.2052 19.3932 7 20.4248 7 21.4667C7 22.5085 7.2052 23.5401 7.60389 24.5026C8.00258 25.4651 8.58694 26.3397 9.32362 27.0764C10.0603 27.8131 10.9349 28.3974 11.8974 28.7961C12.8599 29.1948 13.8915 29.4 14.9333 29.4C15.9752 29.4 17.0068 29.1948 17.9693 28.7961C18.9318 28.3974 19.8064 27.8131 20.543 27.0764C21.2797 26.3397 21.8641 25.4651 22.2628 24.5026C22.6615 23.5401 22.8667 22.5085 22.8667 21.4667C22.8667 20.4248 22.6615 19.3932 22.2628 18.4307C21.8641 17.4682 21.2797 16.5936 20.543 15.857C19.8064 15.1203 18.9318 14.5359 17.9693 14.1372C17.0068 13.7385 15.9752 13.5333 14.9333 13.5333V13.5333ZM27.5333 14.4667C27.0431 14.4667 26.5576 14.6477 26.1046 14.9995C25.6517 15.3513 25.2401 15.8669 24.8935 16.5169C24.5468 17.1669 24.2718 17.9386 24.0842 18.7879C23.8966 19.6372 23.8 20.5474 23.8 21.4667C23.8 22.3859 23.8966 23.2962 24.0842 24.1454C24.2718 24.9947 24.5468 25.7664 24.8935 26.4164C25.2401 27.0664 25.6517 27.582 26.1046 27.9338C26.5576 28.2856 27.0431 28.4667 27.5333 28.4667C28.0236 28.4667 28.5091 28.2856 28.962 27.9338C29.415 27.582 29.8265 27.0664 30.1732 26.4164C30.5199 25.7664 30.7949 24.9947 30.9825 24.1454C31.1701 23.2962 31.2667 22.3859 31.2667 21.4667C31.2667 20.5474 31.1701 19.6372 30.9825 18.7879C30.7949 17.9386 30.5199 17.1669 30.1732 16.5169C29.8265 15.8669 29.415 15.3513 28.962 14.9995C28.5091 14.6477 28.0236 14.4667 27.5333 14.4667V14.4667ZM33.6 15.4C33.2287 15.4 32.8726 16.0392 32.6101 17.1769C32.3475 18.3146 32.2 19.8577 32.2 21.4667C32.2 23.0756 32.3475 24.6187 32.6101 25.7564C32.8726 26.8942 33.2287 27.5333 33.6 27.5333C33.9713 27.5333 34.3274 26.8942 34.5899 25.7564C34.8525 24.6187 35 23.0756 35 21.4667C35 19.8577 34.8525 18.3146 34.5899 17.1769C34.3274 16.0392 33.9713 15.4 33.6 15.4V15.4Z" fill="#3D77DA"/>
</g>
<defs>
<clipPath id="clip0_1_269">
<rect width="28" height="28" fill="white" transform="translate(7 7)"/>
</clipPath>
</defs>
</svg>
