<svg width="25" height="26" viewBox="0 0 25 26" fill="none" xmlns="http://www.w3.org/2000/svg">
<g clip-path="url(#clip0_1_342)">
<path d="M16.8213 8.3125C16.1133 3.95215 14.4434 0.890625 12.5 0.890625C10.5566 0.890625 8.88672 3.95215 8.17871 8.3125H16.8213ZM7.8125 13C7.8125 14.084 7.87109 15.124 7.97363 16.125H17.0215C17.124 15.124 17.1826 14.084 17.1826 13C17.1826 11.916 17.124 10.876 17.0215 9.875H7.97363C7.87109 10.876 7.8125 11.916 7.8125 13ZM23.667 8.3125C22.2705 4.99707 19.4434 2.43359 15.9521 1.39844C17.1436 3.04883 17.9639 5.53418 18.3936 8.3125H23.667ZM9.04297 1.39844C5.55664 2.43359 2.72461 4.99707 1.33301 8.3125H6.60645C7.03125 5.53418 7.85156 3.04883 9.04297 1.39844V1.39844ZM24.1895 9.875H18.5889C18.6914 10.9004 18.75 11.9502 18.75 13C18.75 14.0498 18.6914 15.0996 18.5889 16.125H24.1846C24.4531 15.124 24.6045 14.084 24.6045 13C24.6045 11.916 24.4531 10.876 24.1895 9.875ZM6.25 13C6.25 11.9502 6.30859 10.9004 6.41113 9.875H0.810547C0.546875 10.876 0.390625 11.916 0.390625 13C0.390625 14.084 0.546875 15.124 0.810547 16.125H6.40625C6.30859 15.0996 6.25 14.0498 6.25 13V13ZM8.17871 17.6875C8.88672 22.0479 10.5566 25.1094 12.5 25.1094C14.4434 25.1094 16.1133 22.0479 16.8213 17.6875H8.17871ZM15.957 24.6016C19.4434 23.5664 22.2754 21.0029 23.6719 17.6875H18.3984C17.9687 20.4658 17.1484 22.9512 15.957 24.6016ZM1.33301 17.6875C2.72949 21.0029 5.55664 23.5664 9.04785 24.6016C7.85645 22.9512 7.03613 20.4658 6.60645 17.6875H1.33301V17.6875Z" fill="#0B366B"/>
</g>
<defs>
<clipPath id="clip0_1_342">
<rect width="25" height="25" fill="white" transform="translate(0 0.5)"/>
</clipPath>
</defs>
</svg>
