<svg
  width="28"
  height="28"
  viewBox="0 0 28 28"
  fill="none"
  xmlns="http://www.w3.org/2000/svg"
>
  <path
    d="M23.4454 6.48296C21.183 4.66482 17.6055 4.35682 17.4543 4.34376C17.2153 4.32322 16.9885 4.45856 16.8905 4.67696C16.8868 4.68442 16.6871 5.26402 16.4939 5.82309C19.1231 6.28322 20.9095 7.30429 21.0047 7.36029C21.4508 7.61976 21.6002 8.19189 21.3397 8.63709C21.1671 8.93389 20.8544 9.10002 20.5333 9.10002C20.3737 9.10002 20.2132 9.05989 20.0658 8.97402C20.0396 8.95816 17.4188 7.46669 14.0019 7.46669C10.584 7.46669 7.96228 8.95909 7.93615 8.97402C7.49095 9.23256 6.91975 9.08043 6.66122 8.63429C6.40268 8.19003 6.55295 7.61976 6.99722 7.36029C7.09242 7.30429 8.88535 6.27949 11.522 5.82029C11.3185 5.25469 11.1132 4.68442 11.1095 4.67696C11.0115 4.45762 10.7847 4.31949 10.5457 4.34376C10.3945 4.35589 6.81708 4.66389 4.52482 6.50722C3.32642 7.61416 0.93335 14.0859 0.93335 19.6812C0.93335 19.7802 0.95855 19.8763 1.00802 19.9622C2.66095 22.8648 7.16708 23.6246 8.19375 23.6572C8.20028 23.6582 8.20588 23.6582 8.21148 23.6582C8.39255 23.6582 8.56335 23.5714 8.67068 23.4248L9.78135 21.9203C7.34535 21.3332 6.05735 20.4102 5.97988 20.3532C5.56548 20.048 5.47588 19.4638 5.78108 19.0484C6.08535 18.635 6.66775 18.5435 7.08215 18.8468C7.11668 18.8692 9.49388 20.5334 14 20.5334C18.5239 20.5334 20.8946 18.8627 20.9179 18.8459C21.3323 18.5454 21.9165 18.6359 22.2199 19.0522C22.5223 19.4666 22.4345 20.0471 22.022 20.3514C21.9445 20.4083 20.6631 21.3295 18.2327 21.9166L19.3293 23.4239C19.4367 23.5714 19.6075 23.6572 19.7885 23.6572C19.7951 23.6572 19.8007 23.6572 19.8063 23.6563C20.8339 23.6236 25.34 22.8639 26.992 19.9612C27.0415 19.8754 27.0667 19.7792 27.0667 19.6803C27.0667 14.0859 24.6736 7.61416 23.4454 6.48296ZM10.2667 17.7334C9.23535 17.7334 8.40002 16.689 8.40002 15.4C8.40002 14.1111 9.23535 13.0667 10.2667 13.0667C11.298 13.0667 12.1333 14.1111 12.1333 15.4C12.1333 16.689 11.298 17.7334 10.2667 17.7334ZM17.7333 17.7334C16.702 17.7334 15.8667 16.689 15.8667 15.4C15.8667 14.1111 16.702 13.0667 17.7333 13.0667C18.7647 13.0667 19.6 14.1111 19.6 15.4C19.6 16.689 18.7647 17.7334 17.7333 17.7334Z"
    fill="#3D77DA"
  />
</svg>
