<svg width="31" height="30" viewBox="0 0 31 30" fill="none" xmlns="http://www.w3.org/2000/svg">
<g clip-path="url(#clip0_2_1513)">
<path d="M9.02002 7C7.90378 7 6.79848 7.21986 5.76721 7.64702C4.73594 8.07419 3.79891 8.70029 3.00961 9.48959C2.22031 10.2789 1.59421 11.2159 1.16704 12.2472C0.739879 13.2785 0.52002 14.3838 0.52002 15.5C0.52002 16.6162 0.739879 17.7215 1.16704 18.7528C1.59421 19.7841 2.22031 20.7211 3.00961 21.5104C3.79891 22.2997 4.73594 22.9258 5.76721 23.353C6.79848 23.7801 7.90378 24 9.02002 24C10.1363 24 11.2416 23.7801 12.2728 23.353C13.3041 22.9258 14.2411 22.2997 15.0304 21.5104C15.8197 20.7211 16.4458 19.7841 16.873 18.7528C17.3002 17.7215 17.52 16.6162 17.52 15.5C17.52 14.3838 17.3002 13.2785 16.873 12.2472C16.4458 11.2159 15.8197 10.2789 15.0304 9.48959C14.2411 8.70029 13.3041 8.07419 12.2728 7.64702C11.2416 7.21986 10.1363 7 9.02002 7V7ZM22.52 8C21.9947 8 21.4746 8.19399 20.9893 8.5709C20.504 8.94781 20.063 9.50026 19.6916 10.1967C19.3202 10.8931 19.0255 11.7199 18.8245 12.6299C18.6235 13.5398 18.52 14.5151 18.52 15.5C18.52 16.4849 18.6235 17.4602 18.8245 18.3701C19.0255 19.2801 19.3202 20.1069 19.6916 20.8033C20.063 21.4997 20.504 22.0522 20.9893 22.4291C21.4746 22.806 21.9947 23 22.52 23C23.0453 23 23.5655 22.806 24.0508 22.4291C24.5361 22.0522 24.977 21.4997 25.3484 20.8033C25.7199 20.1069 26.0145 19.2801 26.2155 18.3701C26.4166 17.4602 26.52 16.4849 26.52 15.5C26.52 14.5151 26.4166 13.5398 26.2155 12.6299C26.0145 11.7199 25.7199 10.8931 25.3484 10.1967C24.977 9.50026 24.5361 8.94781 24.0508 8.5709C23.5655 8.19399 23.0453 8 22.52 8V8ZM29.02 9C28.6222 9 28.2407 9.68482 27.9594 10.9038C27.6781 12.1228 27.52 13.7761 27.52 15.5C27.52 17.2239 27.6781 18.8772 27.9594 20.0962C28.2407 21.3152 28.6222 22 29.02 22C29.4178 22 29.7994 21.3152 30.0807 20.0962C30.362 18.8772 30.52 17.2239 30.52 15.5C30.52 13.7761 30.362 12.1228 30.0807 10.9038C29.7994 9.68482 29.4178 9 29.02 9V9Z" fill="#137CE7"/>
</g>
<defs>
<clipPath id="clip0_2_1513">
<rect width="30" height="30" fill="white" transform="translate(0.52002)"/>
</clipPath>
</defs>
</svg>
