<svg
  width="28"
  height="28"
  viewBox="0 0 28 28"
  fill="#3D77DA"
  xmlns="http://www.w3.org/2000/svg"
>
  <g clip-path="url(#clip0_1_160)">
    <path
      d="M7.93333 6.53333C6.89151 6.53333 5.85989 6.73853 4.89738 7.13721C3.93486 7.5359 3.0603 8.12027 2.32362 8.85694C1.58694 9.59362 1.00258 10.4682 0.603889 11.4307C0.205202 12.3932 0 13.4248 0 14.4667C0 15.5085 0.205202 16.5401 0.603889 17.5026C1.00258 18.4651 1.58694 19.3397 2.32362 20.0764C3.0603 20.8131 3.93486 21.3974 4.89738 21.7961C5.85989 22.1948 6.89151 22.4 7.93333 22.4C8.97515 22.4 10.0068 22.1948 10.9693 21.7961C11.9318 21.3974 12.8064 20.8131 13.543 20.0764C14.2797 19.3397 14.8641 18.4651 15.2628 17.5026C15.6615 16.5401 15.8667 15.5085 15.8667 14.4667C15.8667 13.4248 15.6615 12.3932 15.2628 11.4307C14.8641 10.4682 14.2797 9.59362 13.543 8.85694C12.8064 8.12027 11.9318 7.5359 10.9693 7.13721C10.0068 6.73853 8.97515 6.53333 7.93333 6.53333V6.53333ZM20.5333 7.46666C20.0431 7.46666 19.5576 7.64772 19.1046 7.9995C18.6517 8.35128 18.2401 8.8669 17.8935 9.51691C17.5468 10.1669 17.2718 10.9386 17.0842 11.7879C16.8966 12.6372 16.8 13.5474 16.8 14.4667C16.8 15.3859 16.8966 16.2962 17.0842 17.1454C17.2718 17.9947 17.5468 18.7664 17.8935 19.4164C18.2401 20.0664 18.6517 20.582 19.1046 20.9338C19.5576 21.2856 20.0431 21.4667 20.5333 21.4667C21.0236 21.4667 21.5091 21.2856 21.962 20.9338C22.415 20.582 22.8265 20.0664 23.1732 19.4164C23.5199 18.7664 23.7949 17.9947 23.9825 17.1454C24.1701 16.2962 24.2667 15.3859 24.2667 14.4667C24.2667 13.5474 24.1701 12.6372 23.9825 11.7879C23.7949 10.9386 23.5199 10.1669 23.1732 9.51691C22.8265 8.8669 22.415 8.35128 21.962 7.9995C21.5091 7.64772 21.0236 7.46666 20.5333 7.46666V7.46666ZM26.6 8.39999C26.2287 8.39999 25.8726 9.03916 25.6101 10.1769C25.3475 11.3146 25.2 12.8577 25.2 14.4667C25.2 16.0756 25.3475 17.6187 25.6101 18.7564C25.8726 19.8942 26.2287 20.5333 26.6 20.5333C26.9713 20.5333 27.3274 19.8942 27.5899 18.7564C27.8525 17.6187 28 16.0756 28 14.4667C28 12.8577 27.8525 11.3146 27.5899 10.1769C27.3274 9.03916 26.9713 8.39999 26.6 8.39999V8.39999Z"
      fill="#3D77DA"
    />
  </g>
  <defs>
    <clipPath id="clip0_1_160">
      <rect width="28" height="28" fill="white" />
    </clipPath>
  </defs>
</svg>
