<svg width="144" height="46" viewBox="0 0 144 46" fill="none" xmlns="http://www.w3.org/2000/svg">
<path d="M23 46C35.7024 46 46 35.7024 46 23C46 10.2974 35.7024 0 23 0C10.2974 0 0 10.2974 0 23C0 35.7024 10.2974 46 23 46Z" fill="#64AAF1" fill-opacity="0.2"/>
<path d="M23 43.7C34.4324 43.7 43.7 34.4324 43.7 23C43.7 11.5677 34.4324 2.3 23 2.3C11.5677 2.3 2.3 11.5677 2.3 23C2.3 34.4324 11.5677 43.7 23 43.7Z" fill="#91C5FF"/>
<path d="M5.54514 19.5567C5.46613 20.9279 5.57028 22.3135 5.86652 23.6794L7.69969 25.4962L6.18971 24.9122C6.36925 25.498 6.58651 26.0786 6.84147 26.6483L8.98345 28.2783L7.38548 27.7463C7.55246 28.0536 7.73021 28.3574 7.92053 28.6573C12.4613 35.774 21.9036 37.8587 29.0136 33.3137C30.599 32.3001 31.9348 31.0422 33.0013 29.6206C22.9288 31.0171 12.5421 27.3905 5.54514 19.5567Z" fill="url(#paint0_linear_1_289)"/>
<path d="M40.4078 19.5567C40.4867 20.9279 40.3825 22.3135 40.0862 23.6794L38.2531 25.4962L39.7631 24.9122C39.5835 25.498 39.3663 26.0786 39.1113 26.6483L36.9693 28.2783L38.5673 27.7463C38.4003 28.0536 38.2225 28.3574 38.0323 28.6573C33.4917 35.774 24.0493 37.8587 16.9391 33.3137C15.3538 32.3001 14.0179 31.0422 12.9514 29.6206C23.0276 31.019 33.4126 27.3923 40.4094 19.5586L40.4078 19.5567Z" fill="url(#paint1_linear_1_289)"/>
<path d="M22.9648 33.7557C17.5442 33.7557 12.8419 30.6864 10.4953 26.1899C11.9136 31.7609 16.9589 35.88 22.9648 35.88C28.9706 35.88 34.0177 31.7609 35.4343 26.1899C33.0857 30.6864 28.3834 33.7557 22.9648 33.7557Z" fill="url(#paint2_linear_1_289)"/>
<path d="M22.9648 33.7557C28.3852 33.7557 33.0876 30.6864 35.4343 26.1899C35.6946 25.1691 35.8329 24.1017 35.8329 23C35.8329 15.887 30.0711 10.12 22.9648 10.12C15.8583 10.12 10.0966 15.887 10.0966 23C10.0966 24.1017 10.2349 25.1691 10.4953 26.1899C12.8437 30.6864 17.5461 33.7557 22.9648 33.7557Z" fill="url(#paint3_linear_1_289)"/>
<path d="M17.1025 27.3976C19.9831 27.3976 22.3184 25.0601 22.3184 22.1769C22.3184 19.2936 19.9831 16.9563 17.1025 16.9563C14.2219 16.9563 11.8867 19.2936 11.8867 22.1769C11.8867 25.0601 14.2219 27.3976 17.1025 27.3976Z" fill="white" stroke="#084E80" stroke-width="0.57" stroke-miterlimit="10"/>
<path d="M18.3593 25.426C19.9211 25.426 21.1872 24.1587 21.1872 22.5956C21.1872 21.0324 19.9211 19.7652 18.3593 19.7652C16.7975 19.7652 15.5315 21.0324 15.5315 22.5956C15.5315 24.1587 16.7975 25.426 18.3593 25.426Z" fill="#1370A7"/>
<path d="M18.3593 24.4198C19.3658 24.4198 20.1818 23.6031 20.1818 22.5957C20.1818 21.5883 19.3658 20.7716 18.3593 20.7716C17.3529 20.7716 16.537 21.5883 16.537 22.5957C16.537 23.6031 17.3529 24.4198 18.3593 24.4198Z" fill="#0B1A2B"/>
<path d="M17.3288 21.742C17.6481 21.742 17.9069 21.4829 17.9069 21.1633C17.9069 20.8437 17.6481 20.5846 17.3288 20.5846C17.0095 20.5846 16.7506 20.8437 16.7506 21.1633C16.7506 21.4829 17.0095 21.742 17.3288 21.742Z" fill="white"/>
<path d="M28.6743 27.3976C31.5551 27.3976 33.89 25.0601 33.89 22.1769C33.89 19.2936 31.5551 16.9563 28.6743 16.9563C25.7936 16.9563 23.4586 19.2936 23.4586 22.1769C23.4586 25.0601 25.7936 27.3976 28.6743 27.3976Z" fill="white" stroke="#084E80" stroke-width="0.57" stroke-miterlimit="10"/>
<path d="M27.4174 25.426C28.9793 25.426 30.2455 24.1587 30.2455 22.5956C30.2455 21.0324 28.9793 19.7652 27.4174 19.7652C25.8557 19.7652 24.5898 21.0324 24.5898 22.5956C24.5898 24.1587 25.8557 25.426 27.4174 25.426Z" fill="#1370A7"/>
<path d="M27.4174 24.4198C28.4239 24.4198 29.2399 23.6031 29.2399 22.5957C29.2399 21.5883 28.4239 20.7716 27.4174 20.7716C26.4109 20.7716 25.5951 21.5883 25.5951 22.5957C25.5951 23.6031 26.4109 24.4198 27.4174 24.4198Z" fill="#0B1A2B"/>
<path d="M26.3851 21.742C26.7044 21.742 26.9634 21.4829 26.9634 21.1633C26.9634 20.8437 26.7044 20.5846 26.3851 20.5846C26.0659 20.5846 25.8069 20.8437 25.8069 21.1633C25.8069 21.4829 26.0659 21.742 26.3851 21.742Z" fill="white"/>
<path d="M24.2181 26.5871L22.9737 24.7324C22.9324 24.6712 22.8444 24.6712 22.8031 24.7324L21.5589 26.5871L21.5301 26.6303L21.5678 26.6697L22.8139 27.9942C22.8552 28.0375 22.9235 28.0375 22.9629 27.9942L24.2089 26.6697L24.2466 26.6303L24.2181 26.5871Z" fill="url(#paint4_linear_1_289)"/>
<path d="M53.36 14.7704H57.7891L62.4671 26.1834H62.6663L67.3442 14.7704H71.7733V31.757H68.2898V20.7008H68.1488L63.7528 31.6742H61.3806L56.9846 20.6594H56.8436V31.757H53.36V14.7704Z" fill="url(#paint5_linear_1_289)"/>
<path d="M78.766 31.9976C77.953 31.9976 77.2287 31.8566 76.5928 31.5746C75.9568 31.2871 75.4538 30.8642 75.0833 30.3055C74.7183 29.7415 74.5359 29.0393 74.5359 28.1989C74.5359 27.491 74.6658 26.8967 74.9257 26.4155C75.1856 25.9346 75.5394 25.5475 75.9874 25.2545C76.4352 24.9612 76.944 24.7402 77.5134 24.5909C78.0884 24.4416 78.6913 24.3365 79.3217 24.2756C80.0625 24.1983 80.6598 24.1263 81.1132 24.0601C81.5665 23.9881 81.8956 23.883 82.1001 23.7447C82.3048 23.6065 82.4072 23.402 82.4072 23.1311V23.0812C82.4072 22.556 82.2411 22.1495 81.9094 21.862C81.5833 21.5745 81.1187 21.4307 80.5161 21.4307C79.8801 21.4307 79.3741 21.5717 78.9981 21.8537C78.622 22.1302 78.3734 22.4786 78.2517 22.8988L74.9837 22.6334C75.1495 21.8593 75.4759 21.1902 75.9626 20.6262C76.449 20.0566 77.0767 19.6198 77.8453 19.3157C78.6193 19.006 79.5151 18.8512 80.5327 18.8512C81.2404 18.8512 81.9177 18.9342 82.5647 19.1C83.2172 19.2659 83.795 19.523 84.2982 19.8714C84.807 20.2198 85.2079 20.6677 85.5009 21.2151C85.7939 21.757 85.9404 22.4067 85.9404 23.1642V31.757H82.5895V29.9904H82.49C82.2855 30.3885 82.0118 30.7397 81.6689 31.0438C81.3262 31.3423 80.9142 31.5774 80.4331 31.7487C79.9519 31.9146 79.3962 31.9976 78.766 31.9976ZM79.7778 29.5591C80.2976 29.5591 80.7564 29.4568 81.1546 29.2523C81.5527 29.0421 81.8653 28.7601 82.0918 28.4061C82.3186 28.0524 82.432 27.6515 82.432 27.2035V25.8515C82.3214 25.9235 82.1693 25.9898 81.9759 26.0507C81.7878 26.1059 81.575 26.1584 81.3372 26.2083C81.0994 26.2524 80.8616 26.2938 80.6237 26.3327C80.3861 26.3658 80.1704 26.3962 79.977 26.4238C79.5621 26.4847 79.2 26.5816 78.8902 26.7143C78.5806 26.847 78.3401 27.0266 78.1687 27.2534C77.9974 27.4744 77.9116 27.7509 77.9116 28.0828C77.9116 28.5637 78.0857 28.9315 78.4341 29.1858C78.7881 29.4347 79.2359 29.5591 79.7778 29.5591Z" fill="url(#paint6_linear_1_289)"/>
<path d="M94.8886 36.8C93.7439 36.8 92.7624 36.6424 91.9441 36.3271C91.1311 36.0175 90.4843 35.5946 90.0031 35.0582C89.522 34.5218 89.2096 33.919 89.0659 33.2499L92.3337 32.8104C92.4333 33.0648 92.5909 33.3026 92.8066 33.5239C93.0223 33.7449 93.3071 33.9218 93.6608 34.0545C94.0203 34.1929 94.4571 34.2619 94.9714 34.2619C95.74 34.2619 96.3732 34.074 96.8707 33.698C97.3739 33.3275 97.6256 32.7053 97.6256 31.8318V29.5009H97.4763C97.3215 29.8549 97.0892 30.1896 96.7796 30.5047C96.4698 30.8198 96.0717 31.0769 95.5852 31.2761C95.0986 31.475 94.518 31.5746 93.8435 31.5746C92.8869 31.5746 92.0159 31.3534 91.2306 30.9111C90.4509 30.4633 89.829 29.7804 89.3644 28.8625C88.9056 27.939 88.676 26.7722 88.676 25.3621C88.676 23.9191 88.9111 22.7136 89.381 21.7459C89.8511 20.7782 90.476 20.0539 91.2555 19.5728C92.0407 19.0917 92.9007 18.8512 93.8352 18.8512C94.5484 18.8512 95.1457 18.9729 95.6266 19.2162C96.1078 19.4539 96.4949 19.7525 96.7879 20.1119C97.0864 20.4658 97.316 20.8142 97.4763 21.157H97.609V19.0171H101.117V31.8814C101.117 32.9652 100.852 33.8721 100.321 34.6021C99.7903 35.3319 99.055 35.8793 98.115 36.2443C97.1805 36.6148 96.105 36.8 94.8886 36.8ZM94.9631 28.9204C95.5326 28.9204 96.0137 28.7794 96.4063 28.4975C96.8045 28.21 97.1085 27.8008 97.3187 27.2699C97.5343 26.7336 97.6421 26.0921 97.6421 25.3455C97.6421 24.5992 97.537 23.9522 97.327 23.4048C97.1168 22.8518 96.8127 22.4233 96.4146 22.1191C96.0165 21.815 95.5326 21.663 94.9631 21.663C94.3826 21.663 93.8931 21.8206 93.495 22.1357C93.0969 22.4454 92.7956 22.8767 92.5909 23.4296C92.3864 23.9826 92.284 24.6213 92.284 25.3455C92.284 26.0811 92.3864 26.717 92.5909 27.2534C92.8011 27.7842 93.1024 28.1962 93.495 28.4892C93.8931 28.7767 94.3826 28.9204 94.9631 28.9204Z" fill="url(#paint7_linear_1_289)"/>
<path d="M104.396 36.5346V19.0171H107.88V21.157H108.037C108.192 20.8142 108.416 20.4658 108.709 20.1119C109.008 19.7525 109.395 19.4539 109.871 19.2162C110.352 18.9729 110.949 18.8512 111.662 18.8512C112.591 18.8512 113.448 19.0945 114.233 19.5811C115.019 20.0622 115.646 20.7893 116.116 21.7625C116.586 22.7302 116.821 23.9439 116.821 25.4037C116.821 26.8247 116.592 28.0246 116.133 29.0035C115.679 29.9766 115.06 30.7147 114.275 31.2179C113.495 31.7156 112.622 31.9645 111.654 31.9645C110.968 31.9645 110.385 31.8511 109.904 31.6243C109.428 31.3978 109.038 31.1128 108.734 30.7701C108.43 30.4216 108.198 30.0707 108.037 29.7167H107.93V36.5346H104.396ZM107.855 25.3872C107.855 26.1446 107.96 26.8053 108.17 27.3693C108.38 27.9335 108.684 28.373 109.083 28.6881C109.481 28.9979 109.965 29.1527 110.534 29.1527C111.109 29.1527 111.596 28.9952 111.994 28.6798C112.392 28.3592 112.693 27.9169 112.898 27.3527C113.108 26.7833 113.213 26.128 113.213 25.3872C113.213 24.6516 113.111 24.0046 112.906 23.4462C112.702 22.8878 112.4 22.4509 112.002 22.1357C111.604 21.8206 111.115 21.663 110.534 21.663C109.959 21.663 109.472 21.815 109.074 22.1191C108.682 22.4233 108.38 22.8546 108.17 23.4131C107.96 23.9715 107.855 24.6295 107.855 25.3872Z" fill="url(#paint8_linear_1_289)"/>
<path d="M119.644 31.757V19.0171H123.177V31.757H119.644ZM121.419 17.3748C120.894 17.3748 120.443 17.2006 120.067 16.8523C119.696 16.4984 119.511 16.0754 119.511 15.5833C119.511 15.0967 119.696 14.6792 120.067 14.3308C120.443 13.9769 120.894 13.8 121.419 13.8C121.944 13.8 122.392 13.9769 122.762 14.3308C123.139 14.6792 123.326 15.0967 123.326 15.5833C123.326 16.0754 123.139 16.4984 122.762 16.8523C122.392 17.2006 121.944 17.3748 121.419 17.3748Z" fill="url(#paint9_linear_1_289)"/>
<path d="M132.281 32.0059C130.97 32.0059 129.842 31.7405 128.897 31.2096C127.957 30.6733 127.232 29.9159 126.724 28.937C126.215 27.9528 125.96 26.7888 125.96 25.4451C125.96 24.1346 126.215 22.9845 126.724 21.9947C127.232 21.005 127.948 20.2336 128.872 19.6806C129.801 19.1277 130.89 18.8512 132.14 18.8512C132.98 18.8512 133.763 18.9867 134.487 19.2576C135.217 19.523 135.853 19.9239 136.395 20.4603C136.942 20.9967 137.368 21.6713 137.672 22.4841C137.976 23.2914 138.128 24.2369 138.128 25.3207V26.2911H127.371V24.1015H134.802C134.802 23.5927 134.692 23.1421 134.47 22.7495C134.249 22.3569 133.942 22.05 133.55 21.8288C133.163 21.6021 132.712 21.4888 132.198 21.4888C131.661 21.4888 131.186 21.6132 130.771 21.862C130.362 22.1053 130.041 22.4343 129.809 22.849C129.577 23.2583 129.458 23.7144 129.452 24.2176V26.2993C129.452 26.9298 129.568 27.4744 129.801 27.9335C130.039 28.3923 130.373 28.7463 130.804 28.9952C131.236 29.244 131.747 29.3682 132.339 29.3682C132.731 29.3682 133.091 29.313 133.417 29.2024C133.743 29.0918 134.023 28.9259 134.255 28.7047C134.487 28.4837 134.664 28.2127 134.786 27.8919L138.054 28.1076C137.888 28.8928 137.548 29.5785 137.033 30.1645C136.525 30.7452 135.867 31.1986 135.059 31.5249C134.258 31.8456 133.331 32.0059 132.281 32.0059Z" fill="url(#paint10_linear_1_289)"/>
<defs>
<linearGradient id="paint0_linear_1_289" x1="7.97081" y1="20.635" x2="30.1645" y2="36.8614" gradientUnits="userSpaceOnUse">
<stop stop-color="#69AEE6"/>
<stop offset="0.17" stop-color="#1275C7"/>
<stop offset="0.21" stop-color="#0F60A3"/>
<stop offset="0.26" stop-color="#0C4C81"/>
<stop offset="0.31" stop-color="#0A3D69"/>
<stop offset="0.36" stop-color="#09355A"/>
<stop offset="0.4" stop-color="#093255"/>
<stop offset="0.48" stop-color="#0C3557"/>
<stop offset="0.55" stop-color="#183E5F"/>
<stop offset="0.63" stop-color="#2C4F6D"/>
<stop offset="0.71" stop-color="#476680"/>
<stop offset="0.78" stop-color="#6A8398"/>
<stop offset="0.86" stop-color="#96A7B6"/>
<stop offset="0.93" stop-color="#C8D1D9"/>
<stop offset="1" stop-color="white"/>
</linearGradient>
<linearGradient id="paint1_linear_1_289" x1="37.982" y1="20.635" x2="15.7865" y2="36.8614" gradientUnits="userSpaceOnUse">
<stop stop-color="#69AEE6"/>
<stop offset="0.17" stop-color="#1275C7"/>
<stop offset="0.21" stop-color="#0F60A3"/>
<stop offset="0.26" stop-color="#0C4C81"/>
<stop offset="0.31" stop-color="#0A3D69"/>
<stop offset="0.36" stop-color="#09355A"/>
<stop offset="0.4" stop-color="#093255"/>
<stop offset="0.48" stop-color="#0C3557"/>
<stop offset="0.55" stop-color="#183E5F"/>
<stop offset="0.63" stop-color="#2C4F6D"/>
<stop offset="0.71" stop-color="#476680"/>
<stop offset="0.78" stop-color="#6A8398"/>
<stop offset="0.86" stop-color="#96A7B6"/>
<stop offset="0.93" stop-color="#C8D1D9"/>
<stop offset="1" stop-color="white"/>
</linearGradient>
<linearGradient id="paint2_linear_1_289" x1="11.56" y1="31.0348" x2="34.2976" y2="31.0348" gradientUnits="userSpaceOnUse">
<stop stop-color="#083658"/>
<stop offset="0.13" stop-color="#92C2EA"/>
<stop offset="0.14" stop-color="#A9CEEE"/>
<stop offset="0.17" stop-color="#C3DDF3"/>
<stop offset="0.2" stop-color="#D9EAF7"/>
<stop offset="0.23" stop-color="#EAF3FB"/>
<stop offset="0.27" stop-color="#F6FAFD"/>
<stop offset="0.33" stop-color="#FDFDFE"/>
<stop offset="0.5" stop-color="white"/>
<stop offset="0.66" stop-color="#FDFDFE"/>
<stop offset="0.72" stop-color="#F6FAFD"/>
<stop offset="0.77" stop-color="#EAF3FB"/>
<stop offset="0.8" stop-color="#D9EAF7"/>
<stop offset="0.83" stop-color="#C3DDF3"/>
<stop offset="0.85" stop-color="#A8CEEE"/>
<stop offset="0.88" stop-color="#87BCE7"/>
<stop offset="0.9" stop-color="#62A7E0"/>
<stop offset="0.92" stop-color="#3990D8"/>
<stop offset="0.93" stop-color="#137BD1"/>
<stop offset="1" stop-color="#083658"/>
</linearGradient>
<linearGradient id="paint3_linear_1_289" x1="22.9648" y1="11.457" x2="22.9648" y2="37.217" gradientUnits="userSpaceOnUse">
<stop offset="0.01" stop-color="#050F1A"/>
<stop offset="0.41" stop-color="#0B1A2B"/>
<stop offset="0.52" stop-color="#0B1B2E"/>
<stop offset="0.62" stop-color="#0B2138"/>
<stop offset="0.7" stop-color="#0C2B48"/>
<stop offset="0.78" stop-color="#0D3960"/>
<stop offset="0.85" stop-color="#0F4B7F"/>
<stop offset="0.93" stop-color="#1060A3"/>
<stop offset="1" stop-color="#137BD1"/>
</linearGradient>
<linearGradient id="paint4_linear_1_289" x1="22.8876" y1="24.6857" x2="22.8876" y2="28.0264" gradientUnits="userSpaceOnUse">
<stop stop-color="#E1E1E1"/>
<stop offset="1" stop-color="#908A89"/>
</linearGradient>
<linearGradient id="paint5_linear_1_289" x1="95.7442" y1="13.8" x2="95.7817" y2="36.8007" gradientUnits="userSpaceOnUse">
<stop stop-color="#062049"/>
<stop offset="1" stop-color="#1776D0"/>
</linearGradient>
<linearGradient id="paint6_linear_1_289" x1="95.7442" y1="13.8" x2="95.7817" y2="36.8007" gradientUnits="userSpaceOnUse">
<stop stop-color="#062049"/>
<stop offset="1" stop-color="#1776D0"/>
</linearGradient>
<linearGradient id="paint7_linear_1_289" x1="95.7442" y1="13.8" x2="95.7817" y2="36.8007" gradientUnits="userSpaceOnUse">
<stop stop-color="#062049"/>
<stop offset="1" stop-color="#1776D0"/>
</linearGradient>
<linearGradient id="paint8_linear_1_289" x1="95.7442" y1="13.8" x2="95.7817" y2="36.8007" gradientUnits="userSpaceOnUse">
<stop stop-color="#062049"/>
<stop offset="1" stop-color="#1776D0"/>
</linearGradient>
<linearGradient id="paint9_linear_1_289" x1="95.7441" y1="13.8" x2="95.7816" y2="36.8007" gradientUnits="userSpaceOnUse">
<stop stop-color="#062049"/>
<stop offset="1" stop-color="#1776D0"/>
</linearGradient>
<linearGradient id="paint10_linear_1_289" x1="95.7442" y1="13.8" x2="95.7816" y2="36.8007" gradientUnits="userSpaceOnUse">
<stop stop-color="#062049"/>
<stop offset="1" stop-color="#1776D0"/>
</linearGradient>
</defs>
</svg>
