<svg
  width="24"
  height="24"
  viewBox="0 0 24 24"
  fill="none"
  xmlns="http://www.w3.org/2000/svg"
>
  <path
    d="M21.5329 7.1117C21.5482 7.32488 21.5482 7.53812 21.5482 7.7513C21.5482 14.2538 16.599 21.7462 7.55329 21.7462C4.76648 21.7462 2.17768 20.939 0 19.5382C0.395953 19.5838 0.776624 19.599 1.18781 19.599C3.48726 19.599 5.60405 18.8224 7.2944 17.4976C5.13197 17.4518 3.31978 16.0356 2.6954 14.0863C3 14.1319 3.30455 14.1624 3.62437 14.1624C4.06598 14.1624 4.50764 14.1016 4.91878 13.995C2.66498 13.538 0.974578 11.5584 0.974578 9.16754V9.10665C1.62937 9.47213 2.39086 9.70055 3.1979 9.73097C1.87303 8.84771 1.00505 7.34012 1.00505 5.63452C1.00505 4.72083 1.24866 3.88328 1.67508 3.15231C4.0964 6.13707 7.73602 8.08628 11.8172 8.29951C11.7411 7.93402 11.6954 7.55335 11.6954 7.17263C11.6954 4.46194 13.8883 2.25385 16.6141 2.25385C18.0304 2.25385 19.3096 2.84776 20.208 3.80715C21.3197 3.59396 22.3856 3.18278 23.3299 2.61933C22.9644 3.76149 22.1878 4.72088 21.1674 5.32997C22.1573 5.22343 23.1167 4.94926 23.9999 4.56859C23.3299 5.54317 22.4923 6.41115 21.5329 7.1117Z"
    fill="#3D77DA"
  />
</svg>
