<svg width="22" height="22" viewBox="0 0 22 22" fill="none" xmlns="http://www.w3.org/2000/svg">
<path d="M19.8172 5.5H3.4375C3.05766 5.5 2.75 5.19234 2.75 4.8125C2.75 4.43266 3.05766 4.125 3.4375 4.125H19.9375C20.3173 4.125 20.625 3.81734 20.625 3.4375C20.625 2.2984 19.7016 1.375 18.5625 1.375H2.75C1.23105 1.375 0 2.60605 0 4.125V17.875C0 19.3939 1.23105 20.625 2.75 20.625H19.8172C21.0212 20.625 22 19.6999 22 18.5625V7.5625C22 6.42512 21.0212 5.5 19.8172 5.5ZM17.875 14.4375C17.1157 14.4375 16.5 13.8218 16.5 13.0625C16.5 12.3032 17.1157 11.6875 17.875 11.6875C18.6343 11.6875 19.25 12.3032 19.25 13.0625C19.25 13.8218 18.6343 14.4375 17.875 14.4375Z" fill="#137CE7"/>
</svg>
