<svg width="20" height="21" viewBox="0 0 20 21" fill="none" xmlns="http://www.w3.org/2000/svg">
<g clip-path="url(#clip0_1_190)">
<mask id="mask0_1_190" style="mask-type:luminance" maskUnits="userSpaceOnUse" x="0" y="0" width="20" height="21">
<path d="M0 0.499999H20V20.5H0V0.499999Z" fill="white"/>
</mask>
<g mask="url(#mask0_1_190)">
<path d="M5.7895 19.9737C5.69932 19.9736 5.61066 19.9504 5.53203 19.9063C5.4534 19.8621 5.38743 19.7985 5.34046 19.7215C5.29349 19.6445 5.26708 19.5568 5.26378 19.4666C5.26048 19.3765 5.28039 19.2871 5.3216 19.2068L8.98739 12.0789H2.6316C2.52419 12.079 2.41934 12.0462 2.33111 11.9849C2.24288 11.9237 2.17551 11.8369 2.13804 11.7362C2.10057 11.6356 2.0948 11.5259 2.1215 11.4218C2.14819 11.3178 2.20608 11.2244 2.28739 11.1542L13.8669 1.15421C13.9593 1.07414 14.0768 1.02879 14.1991 1.02594C14.3214 1.02309 14.4409 1.06293 14.537 1.13861C14.6331 1.21428 14.6998 1.32107 14.7257 1.44062C14.7517 1.56017 14.7351 1.68501 14.679 1.79369L11.0132 8.92105H17.3684C17.4758 8.9211 17.5806 8.95398 17.6687 9.01528C17.7569 9.07658 17.8242 9.16338 17.8616 9.26402C17.899 9.36466 17.9047 9.47433 17.878 9.57832C17.8513 9.6823 17.7934 9.77564 17.7121 9.84579L6.13371 19.8458C6.03805 19.9284 5.91587 19.9738 5.7895 19.9737Z" fill="white"/>
</g>
</g>
<defs>
<clipPath id="clip0_1_190">
<rect width="20" height="20" fill="white" transform="translate(0 0.5)"/>
</clipPath>
</defs>
</svg>
